<?xml version="1.0" encoding="UTF-8"?>
<!-- Generator: Adobe Illustrator 19.1.0, SVG Export Plug-In . SVG Version: 6.00 Build 0)  -->
<svg xmlns="http://www.w3.org/2000/svg" xmlns:xlink="http://www.w3.org/1999/xlink" xmlns:dc="http://purl.org/dc/elements/1.1/" xmlns:cc="http://creativecommons.org/ns#" xmlns:rdf="http://www.w3.org/1999/02/22-rdf-syntax-ns#" version="1.1" id="DESIGNS" x="0px" y="0px" width="32px" height="32px" viewBox="0 0 32 32" style="enable-background:new 0 0 32 32;" xml:space="preserve">
<title property="dc:title">to photograph</title><desc property="dc:description">An icon for "photograph" from the Pictogram series on to [icon]. Downloaded from http://www.toicon.com/icons/pictogram_photograph by 27.247.162.147 on 2020-01-12. Licensed CC-BY, see http://toicon.com/license/ for details.</desc>
<g>
	<path class="pictogram_een" d="M32,29c0,1.65-1.35,3-3,3H3c-1.65,0-3-1.35-3-3V3c0-1.65,1.35-3,3-3h26c1.65,0,3,1.35,3,3V29z" style="fill: #F4D6B0;"/>
	<path class="pictogram_zes" d="M29,6H3C1.35,6,0,7.35,0,9v20c0,1.65,1.35,3,3,3h26c1.65,0,3-1.35,3-3V9C32,7.35,30.65,6,29,6z" style="fill: #0C6667;"/>
	<circle class="pictogram_vier" cx="28" cy="10" r="2" style="fill: #E54D2E;"/>
	<path class="pictogram_twee" d="M10,22c0,3.309,2.691,6,6,6V16C12.691,16,10,18.691,10,22z" style="fill: #F8AD89;"/>
	<path class="pictogram_vijf" d="M23,6H9V2c0-1.105,0.895-2,2-2h10c1.105,0,2,0.895,2,2V6z M25,22c0,4.963-4.037,9-9,9   c-4.963,0-9-4.037-9-9c0-4.963,4.037-9,9-9C20.963,13,25,17.037,25,22z M22,22c0-3.314-2.686-6-6-6s-6,2.686-6,6s2.686,6,6,6   S22,25.314,22,22z M9,12V9.875c0-1.105-0.895-2-2-2H4c-1.105,0-2,0.895-2,2V12c0,1.105,0.895,2,2,2h3C8.105,14,9,13.105,9,12z" style="fill: #01A59C;"/>
	<path class="pictogram_een" d="M22,22c0,3.309-2.691,6-6,6V16C19.309,16,22,18.691,22,22z M18,2.017h-4c-1.105,0-2,0.895-2,2v2h8   v-2C20,2.912,19.105,2.017,18,2.017z" style="fill: #F4D6B0;"/>
</g>
<metadata><work rdf:about=""><format>image/svg+xml</format><type rdf:resource="http://purl.org/dc/dcmitype/StillImage"/><license rdf:resource="http://creativecommons.org/licenses/by/4.0/"/><attributionname>Jo Szczepanska</attributionname><attributionurl>http://www.toicon.com/icons/pictogram_photograph</attributionurl></work></metadata></svg>
